PathFileType	4	(X/Y/Z)	Walk4.trc
DataRate	CameraRate	NumFrames	NumMarkers	Units	OrigDataRate	OrigDataStartFrame	OrigNumFrames
200.000000	200.000000	9	58	mm	200.000000	400	550
Frame#	Times		RBHD		C7		RASI		RACR1		RUA1		RElbow		RFA1		RWRU		RCAR		LFA1		RTH2		RTH3		RBack		LTH2		LElbowM		RLFC		RTB1		RTB3		LTH3		RTH1		RTH4		RMT1		RMT5		LElbow		RTB2		LTH4		LACR1		RTB4		LWRR		LWRU		RMMAL		CLAV		LASI		LPSI		LTB1		LBHD		RPSI		LLFC		T10		RWRR		LFHD		LTB3		LCAR		LTH1		LTB4		RFHD		LMT1		LCAL		RToe		LMMAL		RElbowM		LMT5		RLMAL		LLMAL		LTB2		LToe		LUA1		RCAL
			X1	Y1	Z1	X2	Y2	Z2	X3	Y3	Z3	X4	Y4	Z4	X5	Y5	Z5	X6	Y6	Z6	X7	Y7	Z7	X8	Y8	Z8	X9	Y9	Z9	X10	Y10	Z10	X11	Y11	Z11	X12	Y12	Z12	X13	Y13	Z13	X14	Y14	Z14	X15	Y15	Z15	X16	Y16	Z16	X17	Y17	Z17	X18	Y18	Z18	X19	Y19	Z19	X20	Y20	Z20	X21	Y21	Z21	X22	Y22	Z22	X23	Y23	Z23	X24	Y24	Z24	X25	Y25	Z25	X26	Y26	Z26	X27	Y27	Z27	X28	Y28	Z28	X29	Y29	Z29	X30	Y30	Z30	X31	Y31	Z31	X32	Y32	Z32	X33	Y33	Z33	X34	Y34	Z34	X35	Y35	Z35	X36	Y36	Z36	X37	Y37	Z37	X38	Y38	Z38	X39	Y39	Z39	X40	Y40	Z40	X41	Y41	Z41	X42	Y42	Z42	X43	Y43	Z43	X44	Y44	Z44	X45	Y45	Z45	X46	Y46	Z46	X47	Y47	Z47	X48	Y48	Z48	X49	Y49	Z49	X50	Y50	Z50	X51	Y51	Z51	X52	Y52	Z52	X53	Y53	Z53	X54	Y54	Z54	X55	Y55	Z55	X56	Y56	Z56	X57	Y57	Z57	X58	Y58	Z58

400	2	470.5	1608.4	353.35	425.08	1460.4	293.78	502.87	956.25	435.32	487.89	1418	442.76	444.96	1231.7	531.97	402.92	1106.8	567.35	466.49	969.54	585.31	479.95	840.7	580.03	533.86	798.09	584.11	430.04	984.57	-15.417	562.93	680.66	463.94	523.8	567.47	471.49	351.12	1370.9	391.38	572.28	673.56	142.33	336.27	1125.9	97.544	535.79	472.59	464.45	523.83	372.88	383.15	390.09	240.67	379.11	513.39	575.06	123.07	467.14	748.39	478.75	495.03	656.75	478.33	360.35	73.924	340.68	333.56	83.498	419.79	356.83	1124.3	21.148	444.08	317.03	453.29	504.62	662.93	104.63	458.89	1440.9	118.37	460.93	307.55	382.34	478.89	875.57	22.132	403.84	867.22	-11.139	309.33	194.75	330.05	557.72	1376.6	281.48	525.19	968.61	134.56	343.13	981.12	214.51	546.43	367.78	207.81	460.92	1595.3	215.12	331.13	978.87	319.27	512.83	458.07	142.75	328.1	1149.1	275.77	546.55	855.43	541.59	646.63	1604.2	226.18	505.01	187.36	227.22	472.7	822.12	-25.32	497.73	760.27	93.768	522.93	277.68	217.92	653.95	1617.5	306.52	585.45	35.22	279.02	374.24	31.572	247.72	402.54	59.4	371.28	453.04	90.981	289.97	377.03	1077	475.42	557.84	32.018	190.03	273.05	203.44	414.07	425.37	71.644	202.7	500.2	275.62	149.75	632.02	30.462	264.93	403.3	1248	29.878	207.36	191.73	367.52
401	2.005	476.49	1608.7	354.16	430.78	1461	294.18	509.03	956.7	434.91	493.19	1418.2	443.2	448.96	1231.6	531.81	406.11	1106.9	566.36	467.65	969.11	585.74	479.89	840.03	580.01	533.09	796.59	584.77	439.93	986.1	-15.654	572.69	682.63	464.36	533.67	569.18	471.93	356.66	1371.2	391.03	575.91	672.81	142.01	343.46	1126.2	96.564	546.84	474.07	464.76	536.72	374.63	383.1	404.81	239.41	379.13	515.87	575.01	122.53	474.97	749.46	479.09	503.6	658.43	478.92	379.45	72.965	340.6	352.38	81.403	419.93	364.32	1124.8	20.216	457.47	316.63	453.27	508.83	662.82	103.83	465.15	1441.9	118.69	474.8	307.88	382.36	489.99	878.17	22.455	414.99	868.45	-11.241	325.47	191.93	329.85	563.76	1377.2	281.85	530.65	968.97	134.36	349.59	981.44	215.1	546.99	367.57	206.94	466.72	1596.1	215.92	337.31	979.34	319.49	513.94	457.91	142	334.23	1149.4	275.8	546.86	853.85	542.16	652.22	1604.9	226.85	505.95	187.19	226.85	484.85	824.38	-25.185	501.12	760.28	94.224	523.34	277.5	217.26	659.72	1617.9	307.28	585.45	35.249	278.95	374.67	31.483	247.95	422.17	58.769	371.35	453.11	91.102	289.83	380.64	1077.7	474.23	557.8	31.978	189.94	289.11	199.59	414.24	425.51	71.62	202.69	500.43	275.46	149.2	631.99	30.548	264.8	410.33	1249.1	29.666	223.49	186.32	367.4
402	2.01	482.29	1608.7	355.01	436.68	1461.4	294.35	514.67	957.09	434.79	498.59	1418.2	443.72	453.38	1231.4	531.58	409.08	1107	565.44	469.01	968.78	585.78	479.85	839.41	579.89	532.03	795.94	585.1	449.7	987.61	-15.95	580.97	684.78	464.38	543.44	570.58	472.65	362	1371.3	390.62	579.32	672.2	142.01	351.1	1126.2	95.741	557.63	475.73	465.15	549.67	376.26	383.08	419.75	238.07	378.91	518.45	575.05	121.99	482.49	750.3	479.47	512.21	659.54	479.83	398.71	71.714	340.63	371.46	79.287	420	371.79	1125.5	19.208	470.95	316.1	453.59	512.67	662.66	103.54	471.42	1442.5	119.11	488.65	308.01	382.4	501.13	880.62	22.65	426.36	869.58	-11.63	341.57	189.06	329.88	569.59	1377.6	282.36	536.54	969.05	133.86	355.9	981.62	215.75	548.36	367.42	205.74	472.64	1596.7	216.73	343.32	979.48	320.02	514.81	457.86	141.37	340.56	1149.8	275.56	547.42	852.55	542.79	657.62	1605.5	227.53	506.2	187.21	226.26	497.19	826.77	-25.043	505.17	760.38	94.249	523.82	277.33	216.62	665.58	1618.2	308.22	585.53	35.295	278.88	374.53	31.41	248.11	441.72	58.321	371.37	453.14	91.249	289.67	384.28	1078.1	473.3	557.8	31.932	189.81	305.03	195.71	414.41	425.54	71.741	202.49	500.71	275.26	148.62	631.94	30.634	264.67	417.1	1250	29.211	239.75	180.81	366.99
403	2.015	488.03	1608.9	356.12	442.6	1461.4	294.45	520.57	957.43	434.58	504.24	1418.1	443.98	457.82	1231.3	531.29	411.83	1107.1	564.47	470.43	968.37	585.48	479.74	838.94	579.63	531.45	794.33	585.75	459.15	989.23	-16.327	588.5	686.69	464.5	552.67	572.33	473.22	367.69	1371.4	390.26	582.88	671.47	141.86	358.68	1126.3	94.835	568.42	476.9	465.58	562.76	377.79	383.04	435.47	236.83	378.63	521.07	574.96	121.42	488.97	750.98	480.16	521.03	660.89	480.29	417.98	70.352	340.92	390.74	77.214	420.11	379.48	1126	18.103	484.73	315.59	453.81	515.89	662.62	103.16	477.43	1443.2	119.47	502.45	308.08	382.49	511.84	883.04	22.923	438.04	870.54	-11.734	357.98	186	329.81	575.38	1377.9	282.74	542.21	969.24	133.59	361.79	981.89	216.11	550.03	367.25	204.43	478.19	1597.1	217.46	349.3	979.69	320.38	515.78	457.64	140.53	346.7	1149.8	275.46	547.88	850.94	543.46	663.2	1606	228.35	506.17	187.11	225.83	509.3	829.09	-24.816	509.98	760.59	94.133	524.4	277.2	215.97	671.27	1618.7	308.72	585.47	35.345	278.69	374.38	31.447	248.06	461.64	57.848	371.47	453.15	91.417	289.41	387.98	1078.6	472.66	557.8	31.86	189.67	321.38	191.72	414.33	425.62	71.78	202.31	501	275.09	148.04	631.88	30.706	264.58	423.97	1250.7	28.704	256.23	175.15	366.83
404	2.02	493.9	1608.8	357.2	448.5	1461.5	294.81	526.68	957.64	434.4	509.62	1418.1	444.41	461.83	1231.2	530.9	414.91	1107.2	563.88	471.65	967.9	585.25	479.45	838.55	579.6	531.1	793.01	586.41	468.82	990.39	-16.518	596.4	688.42	464.83	561.89	573.61	474.01	373.34	1371.5	390.28	586.52	670.61	141.82	366.14	1126.9	93.944	579.08	478.39	465.83	575.64	379.29	383.08	450.94	235.5	378.72	523.58	574.87	120.87	496.23	752.1	480.97	529.6	661.8	480.68	437.43	68.928	341.35	410.14	75.054	420.29	387.03	1126.5	17.191	498.28	315.12	454.02	519.09	662.63	103.09	483.85	1443.7	119.78	516.19	308.15	382.66	522.74	885.24	23.191	449.29	871.78	-11.765	374.6	182.71	329.92	581.15	1378.1	282.98	547.67	969.28	133.32	367.68	982.15	216.2	551.14	367.22	203.5	483.63	1597.2	218.38	355.32	980.18	320.65	517.03	457.47	139.7	352.5	1150	275.36	548.16	849.49	543.9	668.9	1606.5	229.02	506.08	186.9	225.47	521.5	831.45	-24.627	515.07	760.93	94.026	524.94	276.98	215.4	676.84	1619	309.7	585.38	35.394	278.6	374.31	31.562	247.9	481.54	57.558	371.81	453.17	91.574	289.14	391.84	1079.1	472.12	557.76	31.812	189.51	337.72	187.39	414.38	425.65	71.806	202.19	501.45	274.96	147.47	631.86	30.768	264.49	430.89	1251.4	28.255	273.02	169.14	366.89
405	2.025	499.66	1608.6	358.01	454.51	1461.7	295.11	533	957.79	434.15	514.94	1418	444.92	466.3	1231	530.62	418.01	1107.2	563.02	473.17	967.47	585.04	479.31	837.86	579.48	530.64	791.84	586.86	478.55	991.64	-16.87	604.42	690.13	464.93	571.63	574.98	474.57	379.03	1371.5	390.05	590.11	669.77	141.67	373.3	1127.2	92.92	589.65	479.41	466.26	588.38	380.79	383.15	466.28	233.97	378.78	526.19	574.67	120.35	503.77	753.09	481.65	538.24	662.67	481.1	457.29	67.421	341.75	429.64	72.959	420.44	394.37	1126.8	15.949	511.94	314.8	454.23	522.37	662.82	103.07	489.9	1444.1	120.17	530.12	308	383.05	533.75	887.62	23.374	460.56	872.82	-11.888	391.36	179.35	329.95	586.95	1378.2	283.36	553.44	969.2	133.08	373.58	982.25	216.31	551.99	366.92	202.83	489.17	1597.4	219.6	361.35	980.22	320.83	518	457.27	139.19	358.12	1150	275.09	548.54	847.9	544.64	674.59	1606.9	229.65	506.23	186.76	225.13	533.56	833.74	-24.323	520.06	760.99	93.907	525.43	276.79	214.86	682.43	1619.1	310.57	585.35	35.43	278.5	374.42	31.705	247.67	501.75	57.161	372.03	452.87	91.924	288.81	395.85	1079.3	471.45	557.8	31.729	189.36	354.22	183.16	414.27	425.68	71.843	202.05	501.99	274.8	146.82	631.8	30.862	264.38	437.65	1252.1	27.982	290.14	163.22	366.87
406	2.03	505.49	1608.1	358.74	460.21	1461.6	295.17	539.32	957.86	433.88	520.58	1417.7	445.12	470.68	1230.6	530.59	421.07	1107.2	562.2	474.6	967.01	584.99	478.89	837.45	578.5	529.92	790.51	587.49	488.06	993.01	-17.144	612.79	691.61	465.02	581.3	576.12	475.23	384.6	1371.3	389.49	594.13	668.87	141.58	380.21	1127.2	91.765	599.96	480.66	466.43	602	382.26	382.8	481.71	232.37	379	528.91	574.6	119.84	511.56	754.11	482.05	546.52	663.41	481.24	477.44	66.028	341.83	449.3	70.88	420.57	401.77	1127.1	15.073	525.48	314.28	454.57	526.04	662.94	102.81	496.39	1444.4	120.42	543.91	307.86	383.19	544.76	889.88	23.5	471.85	874.12	-11.866	408.15	175.96	330.13	592.8	1378.3	283.79	558.99	969.26	132.93	379.23	982.35	216.89	552.16	366.52	202.35	494.82	1597.7	220.6	367.42	980.26	321.09	519.25	457.04	138.81	364.23	1150	275.19	549.02	846.74	545.54	680.26	1607.2	230.44	506.47	186.57	224.8	545.63	836.05	-24.089	525.24	760.79	94.002	526.26	276.69	214.4	688.19	1618.9	311.09	585.36	35.467	278.4	374.25	31.737	247.75	521.61	57.587	372.97	453.96	92.33	288.95	399.53	1079.6	469.92	557.83	31.644	189.17	371.08	178.68	414.52	425.74	71.887	201.92	502.51	274.65	146.34	631.76	30.88	264.3	444.54	1252.6	27.556	307.3	157.05	366.93
407	2.035	511.42	1607.8	359.6	466.11	1461.3	295.3	545.61	957.85	433.66	526.28	1417.2	445.39	474.57	1230.2	530.52	424.16	1107.1	561.35	475.87	966.44	584.77	478.84	836.76	577.99	529.22	789.32	587.84	497.62	994.18	-17.454	620.71	693.02	464.98	590.39	577.37	475.45	390.16	1371.1	389.34	597.72	667.86	141.58	387.2	1127.2	90.982	610.2	481.66	466.69	612.35	383.47	383.67	497.17	230.7	379.09	531.56	574.42	119.5	519.48	754.53	482.46	555.22	664.11	482.04	497.51	64.831	342.16	469.12	68.799	420.77	409.35	1127.2	14.297	538.97	313.49	454.69	529.96	662.97	102.7	502.59	1444.7	120.66	557.98	307.76	383.45	555.45	892.06	23.89	483.52	874.93	-12.31	424.91	172.65	330.28	598.82	1378.2	284.05	564.72	968.92	132.68	385.11	981.95	217.19	551.99	365.99	202.23	500.49	1597.8	221.21	373.53	980.14	321.55	520.64	456.82	138.28	370.58	1149.9	275.27	549.56	844.98	545.83	685.98	1607.5	231.33	506.82	186.4	224.51	557.85	838.47	-23.971	530.04	760.64	94.048	527	276.44	213.96	693.99	1619.1	312.22	585.34	35.476	278.38	374.17	31.7	247.85	542.02	57.709	373.75	454.1	92.085	288.79	402.86	1080	468.43	557.71	31.446	189.03	388.07	174.49	414.43	425.83	71.929	201.8	503	274.43	146.02	631.76	30.901	264.22	451.64	1253.1	27.066	324.96	149.81	367.01
408	2.04	516.98	1607.2	360.64	472.05	1461.1	295.43	552.14	957.54	433.44	531.82	1416.4	445.57	478.92	1230	530.34	427.41	1106.8	560.29	477.5	965.87	584.38	479.19	835.91	578.19	528.5	788.07	588.18	507.32	995.35	-17.752	628.53	694.39	464.86	599.37	578.19	475.87	395.87	1370.8	389.18	601.13	666.86	141.86	394.46	1126.9	90.068	620.15	482.71	466.99	622.91	384.14	384.74	512.64	228.77	379.3	534.15	574.16	119.17	527.09	754.53	482.55	563.34	665.19	482.61	518.13	63.283	342.05	489.23	66.825	421.22	416.86	1127.3	13.482	552.33	312.74	455.03	533.51	662.87	102.58	508.9	1445	121.16	571.79	307.52	383.75	565.58	894.48	24.372	494.67	876.1	-12.416	442.13	169.14	330.56	604.88	1378	284.48	570.35	968.73	132.56	390.78	981.78	217.18	552.11	365.69	202.27	506.23	1597.5	221.94	379.33	979.93	321.71	521.81	456.67	137.84	376.41	1149.5	275.34	550.25	843.51	546.14	691.55	1607.7	232.03	507.18	186.28	224.31	569.92	840.77	-23.838	534.68	760.5	94.042	527.66	276.15	213.65	699.55	1619	312.96	585.43	35.723	278.23	374.18	31.767	247.87	562.38	57.645	374.22	453.78	91.971	288.58	406.06	1080.3	467.36	557.9	31.282	189.08	405.24	169.77	414.73	425.91	71.96	201.72	503.48	274.2	145.8	631.78	30.769	264.23	458.48	1253.4	26.745	342.89	143.58	367.24
